<svg height="512" viewBox="0 0 64 64" width="512" xmlns="http://www.w3.org/2000/svg"><g id="Call_Center" data-name="Call Center"><path d="m13 41a5 5 0 1 0 5 5 5.006 5.006 0 0 0 -5-5zm0 8a3 3 0 1 1 3-3 3 3 0 0 1 -3 3z"/><path d="m35 41a5 5 0 1 0 5 5 5.006 5.006 0 0 0 -5-5zm0 8a3 3 0 1 1 3-3 3 3 0 0 1 -3 3z"/><path d="m62 21a18.987 18.987 0 0 0 -37.949-1h-13.285a3 3 0 0 0 -2.977 2.628l-.672 5.372h-2.117a3.015 3.015 0 0 0 -3 3 3 3 0 0 0 3 3h1.367l-.25 2h-1.117a3 3 0 0 0 -3 3v14a3 3 0 0 0 3 3h1v2a4 4 0 0 0 8 0v-2h20v2a4 4 0 0 0 8 0v-2h1a3 3 0 0 0 3-3v-13.261a19.012 19.012 0 0 0 16-18.739zm-57 11a1 1 0 0 1 -1-1 .977.977 0 0 1 .307-.713.959.959 0 0 1 .693-.287h1.867l-.25 2zm4.773-9.124a1 1 0 0 1 .993-.876h13.285a18.955 18.955 0 0 0 7.33 14h-12.481a5 5 0 0 0 -9.8 0h-.967zm7.043 13.124h-5.632a2.982 2.982 0 0 1 5.632 0zm-4.816 22a2 2 0 0 1 -4 0v-2h4zm28 0a2 2 0 0 1 -4 0v-2h4zm4-5a1 1 0 0 1 -1 1h-38a1 1 0 0 1 -1-1v-14a1 1 0 0 1 1-1h29.566a18.855 18.855 0 0 0 8.434 2c.338 0 .667-.033 1-.051zm-1-15a17 17 0 1 1 17-17 17.019 17.019 0 0 1 -17 17z"/><path d="m20 43h2v2h-2z"/><path d="m26 43h2v2h-2z"/><path d="m20 47h2v2h-2z"/><path d="m26 47h2v2h-2z"/><path d="m53 19h-1v-2a9 9 0 0 0 -18 0v2h-1a3 3 0 0 0 0 6h1v2a5.006 5.006 0 0 0 5 5h1.184a3 3 0 1 0 0-2h-1.184a3 3 0 0 1 -3-3v-1h3a1 1 0 0 0 1-1v-6a1 1 0 0 0 -1-1h-3v-1a7 7 0 0 1 14 0v1h-3a1 1 0 0 0 -1 1v6a1 1 0 0 0 1 1h4a1 1 0 0 0 1-1h1a3 3 0 0 0 0-6zm-10 11a1 1 0 1 1 -1 1 1 1 0 0 1 1-1zm-10-7a1 1 0 0 1 0-2h1v2zm5 1h-2v-4h2zm10 0v-4h2v4zm5-1h-1v-2h1a1 1 0 0 1 0 2z"/></g></svg>